<?xml version="1.0" encoding="UTF-8" standalone="no"?>
<!-- Generator: Adobe Illustrator 18.1.1, SVG Export Plug-In . SVG Version: 6.00 Build 0)  -->

<svg
   xmlns:dc="http://purl.org/dc/elements/1.1/"
   xmlns:cc="http://creativecommons.org/ns#"
   xmlns:rdf="http://www.w3.org/1999/02/22-rdf-syntax-ns#"
   xmlns:svg="http://www.w3.org/2000/svg"
   xmlns="http://www.w3.org/2000/svg"
   xmlns:sodipodi="http://sodipodi.sourceforge.net/DTD/sodipodi-0.dtd"
   xmlns:inkscape="http://www.inkscape.org/namespaces/inkscape"
   version="1.1"
   id="Layer_1"
   x="0px"
   y="0px"
   viewBox="7.7 3 76.099998 61.900002"
   enable-background="new 7.7 3 347 110.6"
   xml:space="preserve"
   inkscape:version="0.91 r13725"
   sodipodi:docname="galaxy_logo.svg"
   width="76.099998"
   height="61.900002"><metadata
     id="metadata48"><rdf:RDF><cc:Work
         rdf:about=""><dc:format>image/svg+xml</dc:format><dc:type
           rdf:resource="http://purl.org/dc/dcmitype/StillImage" /><dc:title></dc:title></cc:Work></rdf:RDF></metadata><defs
     id="defs46" /><sodipodi:namedview
     pagecolor="#ffffff"
     bordercolor="#666666"
     borderopacity="1"
     objecttolerance="10"
     gridtolerance="10"
     guidetolerance="10"
     inkscape:pageopacity="0"
     inkscape:pageshadow="2"
     inkscape:window-width="1366"
     inkscape:window-height="768"
     id="namedview44"
     showgrid="false"
     fit-margin-top="5"
     fit-margin-left="5"
     fit-margin-right="5"
     fit-margin-bottom="5"
     inkscape:zoom="1.8443804"
     inkscape:cx="193.32093"
     inkscape:cy="-56.587296"
     inkscape:window-x="0"
     inkscape:window-y="0"
     inkscape:window-maximized="0"
     inkscape:current-layer="Layer_1" /><path
     d="m 60.8,22.4 -47,0 c -0.6,0 -1.1,-0.5 -1.1,-1.1 l 0,-12.2 C 12.7,8.5 13.2,8 13.8,8 l 47,0 c 0.6,0 1.1,0.5 1.1,1.1 l 0,12.1 c 0,0.6 -0.4,1.2 -1.1,1.2 z"
     id="path3"
     inkscape:connector-curvature="0"
     style="fill:#58595b" /><path
     d="m 48.2,41.3 -34.3,0 c -0.6,0 -1.2,-0.5 -1.2,-1.2 l 0,-12 c 0,-0.6 0.5,-1.2 1.2,-1.2 l 34.3,0 c 0.6,0 1.2,0.5 1.2,1.2 l 0,12 c 0,0.7 -0.5,1.2 -1.2,1.2 z"
     id="path5"
     inkscape:connector-curvature="0"
     style="fill:#58595b" /><linearGradient
     id="SVGID_1_"
     gradientUnits="userSpaceOnUse"
     x1="61.400002"
     y1="282.5"
     x2="175.7"
     y2="282.5"
     gradientTransform="matrix(0.431,0,0,-0.431,3.0999998,174.4715)"><stop
       offset="0.1656"
       style="stop-color:#D0BD2B"
       id="stop8" /><stop
       offset="1"
       style="stop-color:#D0BD2B;stop-opacity:0"
       id="stop10" /></linearGradient><path
     d="m 77.7,59.9 -47,0 c -0.6,0 -1.2,-0.5 -1.2,-1.2 l 0,-12 c 0,-0.6 0.5,-1.2 1.2,-1.2 l 46.9,0 c 0.6,0 1.2,0.5 1.2,1.2 l 0,12 c 0,0.7 -0.5,1.2 -1.1,1.2 z"
     id="path12"
     inkscape:connector-curvature="0"
     style="fill:url(#SVGID_1_)" /></svg>